<svg width="96" height="16" viewBox="0 0 96 16" fill="none" xmlns="http://www.w3.org/2000/svg">
<g clip-path="url(#clip0_6326_28)">
<path d="M8 0.5L10.472 5.43691L16 6.23344L12 10.0741L12.944 15.5L8 12.9369L3.056 15.5L4 10.0741L0 6.23344L5.528 5.43691L8 0.5Z" fill="#5C5F6A"/>
</g>
<g clip-path="url(#clip1_6326_28)">
<path d="M28 0.5L30.472 5.43691L36 6.23344L32 10.0741L32.944 15.5L28 12.9369L23.056 15.5L24 10.0741L20 6.23344L25.528 5.43691L28 0.5Z" fill="#5C5F6A"/>
</g>
<g clip-path="url(#clip2_6326_28)">
<path d="M48 0.5L50.472 5.43691L56 6.23344L52 10.0741L52.944 15.5L48 12.9369L43.056 15.5L44 10.0741L40 6.23344L45.528 5.43691L48 0.5Z" fill="#5C5F6A"/>
</g>
<g clip-path="url(#clip3_6326_28)">
<path d="M68 0.5L70.472 5.43691L76 6.23344L72 10.0741L72.944 15.5L68 12.9369L63.056 15.5L64 10.0741L60 6.23344L65.528 5.43691L68 0.5Z" fill="#5C5F6A"/>
</g>
<g clip-path="url(#clip4_6326_28)">
<path d="M88 1.5L90.163 5.77865L95 6.46898L91.5 9.79758L92.326 14.5L88 12.2787L83.674 14.5L84.5 9.79758L81 6.46898L85.837 5.77865L88 1.5Z" stroke="#5C5F6A" stroke-width="1.4" stroke-linecap="round" stroke-linejoin="round"/>
</g>
<defs>
<clipPath id="clip0_6326_28">
<rect width="16" height="16" fill="white"/>
</clipPath>
<clipPath id="clip1_6326_28">
<rect width="16" height="16" fill="white" transform="translate(20)"/>
</clipPath>
<clipPath id="clip2_6326_28">
<rect width="16" height="16" fill="white" transform="translate(40)"/>
</clipPath>
<clipPath id="clip3_6326_28">
<rect width="16" height="16" fill="white" transform="translate(60)"/>
</clipPath>
<clipPath id="clip4_6326_28">
<rect width="16" height="16" fill="white" transform="translate(80)"/>
</clipPath>
</defs>
</svg>
