<svg width="24" height="25" viewBox="0 0 24 25" fill="none" xmlns="http://www.w3.org/2000/svg">
<path d="M3 3.5H6.38321L7.58853 15.4769C7.63862 15.8071 7.80643 16.108 8.06102 16.3243C8.31561 16.5406 8.63984 16.6576 8.97395 16.6538H17.7021C18.0042 16.6696 18.3032 16.5861 18.5534 16.4161C18.8035 16.2461 18.9912 15.9989 19.0875 15.7123L20.9302 10.1738C20.999 9.96564 21.0173 9.74406 20.9836 9.52739C20.9498 9.31072 20.865 9.10517 20.7362 8.92769C20.6021 8.73894 20.4227 8.58681 20.2146 8.48522C20.0065 8.38362 19.7761 8.33581 19.5447 8.34615H6.8681M11.5619 11.1154V13.8846M15.7182 11.1154V13.8846M17.4666 21.5C17.2829 21.5 17.1067 21.4271 16.9768 21.2972C16.8469 21.1674 16.7739 20.9913 16.7739 20.8077C16.7739 20.6241 16.8469 20.448 16.9768 20.3182C17.1067 20.1883 17.2829 20.1154 17.4666 20.1154C17.6503 20.1154 17.8265 20.1883 17.9564 20.3182C18.0863 20.448 18.1593 20.6241 18.1593 20.8077C18.1593 20.9913 18.0863 21.1674 17.9564 21.2972C17.8265 21.4271 17.6503 21.5 17.4666 21.5ZM8.46134 21.5C8.27762 21.5 8.10143 21.4271 7.97152 21.2972C7.84161 21.1674 7.76863 20.9913 7.76863 20.8077C7.76863 20.6241 7.84161 20.448 7.97152 20.3182C8.10143 20.1883 8.27762 20.1154 8.46134 20.1154C8.64506 20.1154 8.82126 20.1883 8.95116 20.3182C9.08107 20.448 9.15406 20.6241 9.15406 20.8077C9.15406 20.9913 9.08107 21.1674 8.95116 21.2972C8.82126 21.4271 8.64506 21.5 8.46134 21.5Z" stroke="#0E1422" stroke-width="1.42857" stroke-linecap="round" stroke-linejoin="round"/>
</svg>
