<svg width="20" height="21" viewBox="0 0 20 21" fill="none" xmlns="http://www.w3.org/2000/svg">
<g clip-path="url(#clip0_3631_3844)">
<path d="M6.66668 20.5C8.50668 20.5 10 19.0066 10 17.1666V13.8333H6.66668C4.82668 13.8333 3.33334 15.3266 3.33334 17.1666C3.33334 19.0066 4.82668 20.5 6.66668 20.5Z" fill="#707988"/>
<path d="M3.33334 10.5C3.33334 8.66002 4.82668 7.16669 6.66668 7.16669H10V13.8334H6.66668C4.82668 13.8334 3.33334 12.34 3.33334 10.5Z" fill="#5C5F6A"/>
<path d="M3.33334 3.83333C3.33334 1.99333 4.82668 0.5 6.66668 0.5H10V7.16667H6.66668C4.82668 7.16667 3.33334 5.67333 3.33334 3.83333Z" fill="#5C5F6A"/>
<path d="M10 0.5H13.3333C15.1733 0.5 16.6667 1.99333 16.6667 3.83333C16.6667 5.67333 15.1733 7.16667 13.3333 7.16667H10V0.5Z" fill="#707988"/>
<path d="M16.6667 10.5C16.6667 12.34 15.1733 13.8334 13.3333 13.8334C11.4933 13.8334 10 12.34 10 10.5C10 8.66002 11.4933 7.16669 13.3333 7.16669C15.1733 7.16669 16.6667 8.66002 16.6667 10.5Z" fill="#707988"/>
</g>
<defs>
<clipPath id="clip0_3631_3844">
<rect width="20" height="20" fill="white" transform="translate(0 0.5)"/>
</clipPath>
</defs>
</svg>
