<svg width="24" height="25" viewBox="0 0 24 25" fill="none" xmlns="http://www.w3.org/2000/svg">
<mask id="mask0_3631_3835" style="mask-type:alpha" maskUnits="userSpaceOnUse" x="0" y="0" width="24" height="25">
<rect y="0.5" width="24" height="24" fill="#D9D9D9"/>
</mask>
<g mask="url(#mask0_3631_3835)">
<path d="M12 22.5C10.6167 22.5 9.31667 22.2375 8.1 21.7125C6.88333 21.1875 5.825 20.475 4.925 19.575C4.025 18.675 3.3125 17.6167 2.7875 16.4C2.2625 15.1833 2 13.8833 2 12.5C2 11.1167 2.2625 9.81667 2.7875 8.6C3.3125 7.38333 4.025 6.325 4.925 5.425C5.825 4.525 6.88333 3.8125 8.1 3.2875C9.31667 2.7625 10.6167 2.5 12 2.5C13.3833 2.5 14.6833 2.7625 15.9 3.2875C17.1167 3.8125 18.175 4.525 19.075 5.425C19.975 6.325 20.6875 7.38333 21.2125 8.6C21.7375 9.81667 22 11.1167 22 12.5C22 13.8833 21.7375 15.1833 21.2125 16.4C20.6875 17.6167 19.975 18.675 19.075 19.575C18.175 20.475 17.1167 21.1875 15.9 21.7125C14.6833 22.2375 13.3833 22.5 12 22.5ZM12 20.5C14.2333 20.5 16.125 19.725 17.675 18.175C19.225 16.625 20 14.7333 20 12.5C20 12.3833 19.9958 12.2625 19.9875 12.1375C19.9792 12.0125 19.975 11.9083 19.975 11.825C19.8917 12.3083 19.6667 12.7083 19.3 13.025C18.9333 13.3417 18.5 13.5 18 13.5H16C15.45 13.5 14.9792 13.3042 14.5875 12.9125C14.1958 12.5208 14 12.05 14 11.5V10.5H10V8.5C10 7.95 10.1958 7.47917 10.5875 7.0875C10.9792 6.69583 11.45 6.5 12 6.5H13C13 6.11667 13.1042 5.77917 13.3125 5.4875C13.5208 5.19583 13.775 4.95833 14.075 4.775C13.7417 4.69167 13.4042 4.625 13.0625 4.575C12.7208 4.525 12.3667 4.5 12 4.5C9.76667 4.5 7.875 5.275 6.325 6.825C4.775 8.375 4 10.2667 4 12.5H9C10.1 12.5 11.0417 12.8917 11.825 13.675C12.6083 14.4583 13 15.4 13 16.5V17.5H10V20.25C10.3333 20.3333 10.6625 20.3958 10.9875 20.4375C11.3125 20.4792 11.65 20.5 12 20.5Z" fill="#5C5F6A"/>
</g>
</svg>
