<svg width="20" height="21" viewBox="0 0 20 21" fill="none" xmlns="http://www.w3.org/2000/svg">
<g clip-path="url(#clip0_3631_3840)">
<path d="M4.4766 20.5H0.329928V7.14668H4.4766V20.5ZM2.40159 5.32502C1.07493 5.32502 -7.15845e-05 4.22835 -7.15845e-05 2.90252C-0.00601639 2.58342 0.0516999 2.26633 0.169704 1.96979C0.287709 1.67325 0.463635 1.40321 0.6872 1.17544C0.910766 0.947669 1.17749 0.766743 1.47178 0.643236C1.76607 0.519728 2.08202 0.456116 2.40118 0.456116C2.72033 0.456116 3.03629 0.519728 3.33058 0.643236C3.62487 0.766743 3.89159 0.947669 4.11516 1.17544C4.33872 1.40321 4.51465 1.67325 4.63265 1.96979C4.75066 2.26633 4.80837 2.58342 4.80243 2.90252C4.80243 4.22752 3.72743 5.32668 2.40159 5.32668V5.32502ZM19.9958 20.5H15.8583V14C15.8583 12.45 15.8266 10.4642 13.7024 10.4642C11.5466 10.4642 11.2158 12.1475 11.2158 13.8884V20.5H7.07493V7.14668H11.0516V8.96835H11.1099C11.6633 7.91918 13.0158 6.81252 15.0333 6.81252C19.2291 6.81252 20.0008 9.57585 20.0008 13.165V20.5H19.9958Z" fill="#5C5F6A"/>
</g>
<defs>
<clipPath id="clip0_3631_3840">
<rect width="20" height="20" fill="white" transform="translate(0 0.5)"/>
</clipPath>
</defs>
</svg>
