<svg width="24" height="25" viewBox="0 0 24 25" fill="none" xmlns="http://www.w3.org/2000/svg">
<path d="M5.23077 10.1667H18.7692M5.23077 10.1667V18.3333C5.23077 18.6427 5.36044 18.9395 5.59125 19.1583C5.82207 19.377 6.13511 19.5 6.46154 19.5H17.5385C17.8649 19.5 18.178 19.377 18.4087 19.1583C18.6395 18.9395 18.7692 18.6427 18.7692 18.3333V10.1667M5.23077 10.1667C4.55103 10.1667 4 9.64433 4 9V6.66667C4 6.02234 4.55103 5.5 5.23077 5.5H18.7692C19.449 5.5 20 6.02234 20 6.66667V9C20 9.64433 19.449 10.1667 18.7692 10.1667M10.1538 13.6667H13.8462" stroke="#5C5F6A" stroke-width="1.42857" stroke-linecap="round" stroke-linejoin="round"/>
</svg>
