<svg width="24" height="25" viewBox="0 0 24 25" fill="none" xmlns="http://www.w3.org/2000/svg">
<path d="M9.62731 6.28846L10.2037 4.83692C10.3009 4.59116 10.472 4.37977 10.6944 4.23043C10.9169 4.0811 11.1804 4.00078 11.4504 4H12.5496C12.8196 4.00078 13.0831 4.0811 13.3056 4.23043C13.528 4.37977 13.699 4.59116 13.7962 4.83692L14.3727 6.28846L16.3297 7.38692L17.9115 7.15154C18.1749 7.11666 18.443 7.15895 18.6818 7.27305C18.9204 7.38715 19.1189 7.56788 19.252 7.79231L19.7882 8.70769C19.9256 8.93569 19.989 9.19897 19.9698 9.46278C19.9507 9.72659 19.85 9.97855 19.681 10.1854L18.7024 11.4015V13.5985L19.7078 14.8146C19.8768 15.0215 19.9775 15.2734 19.9966 15.5372C20.0158 15.801 19.9524 16.0643 19.815 16.2923L19.2788 17.2077C19.1457 17.4321 18.9472 17.6128 18.7086 17.727C18.4698 17.841 18.2017 17.8834 17.9383 17.8485L16.3565 17.6131L14.3995 18.7115L13.8231 20.1631C13.7258 20.4088 13.5548 20.6202 13.3324 20.7696C13.1099 20.9189 12.8464 20.9992 12.5764 21H11.4504C11.1804 20.9992 10.9169 20.9189 10.6944 20.7696C10.472 20.6202 10.3009 20.4088 10.2037 20.1631L9.62731 18.7115L7.67019 17.6131L6.08841 17.8485C5.82502 17.8834 5.55695 17.841 5.31826 17.727C5.07959 17.6128 4.88106 17.4321 4.74791 17.2077L4.21171 16.2923C4.07431 16.0643 4.01101 15.801 4.03016 15.5372C4.0493 15.2734 4.15 15.0215 4.31895 14.8146L5.29751 13.5985V11.4015L4.29214 10.1854C4.12319 9.97855 4.02249 9.72659 4.00335 9.46278C3.9842 9.19897 4.0475 8.93569 4.1849 8.70769L4.7211 7.79231C4.85425 7.56788 5.05278 7.38715 5.29145 7.27305C5.53014 7.15895 5.79821 7.11666 6.0616 7.15154L7.64338 7.38692L9.62731 6.28846ZM9.319 12.5C9.319 13.0173 9.47624 13.5229 9.77082 13.953C10.0654 14.3831 10.4841 14.7183 10.974 14.9163C11.4639 15.1142 12.003 15.166 12.523 15.0651C13.0431 14.9642 13.5208 14.7151 13.8957 14.3494C14.2707 13.9836 14.526 13.5176 14.6295 13.0102C14.7329 12.5029 14.6798 11.977 14.4769 11.4991C14.274 11.0212 13.9304 10.6128 13.4895 10.3254C13.0486 10.038 12.5302 9.88462 12 9.88462C11.2889 9.88462 10.607 10.1602 10.1042 10.6506C9.60147 11.1411 9.319 11.8064 9.319 12.5Z" stroke="#5C5F6A" stroke-width="1.42857" stroke-linecap="round" stroke-linejoin="round"/>
</svg>
