<svg width="24" height="25" viewBox="0 0 24 25" fill="none" xmlns="http://www.w3.org/2000/svg">
<path d="M7.80769 20.2857H5.41209C5.09441 20.2857 4.78975 20.1595 4.56511 19.9349C4.34048 19.7103 4.21429 19.4056 4.21429 19.0879V9.5055M4.21429 9.5055H19.7857M4.21429 9.5055L6.86143 5.31318C6.96387 5.13559 7.11017 4.98727 7.28634 4.88241C7.46251 4.77754 7.66264 4.71965 7.86758 4.71428H16.1324C16.3374 4.71965 16.5375 4.77754 16.7137 4.88241C16.8898 4.98727 17.0362 5.13559 17.1386 5.31318L19.7857 9.5055M19.7857 9.5055V19.0879C19.7857 19.4056 19.6595 19.7103 19.4349 19.9349C19.2103 20.1595 18.9056 20.2857 18.5879 20.2857H16.1923M9.00545 16.0934L12 13.0989M12 13.0989L14.9945 16.0934M12 13.0989L12 20.2857M12 4.71428V9.50549" stroke="#5C5F6A" stroke-width="1.42857" stroke-linecap="round" stroke-linejoin="round"/>
</svg>
